<?xml version="1.0" encoding="utf-8"?>
<!-- Generator: Adobe Illustrator 25.3.0, SVG Export Plug-In . SVG Version: 6.00 Build 0)  -->
<svg version="1.1" id="Layer_1" xmlns="http://www.w3.org/2000/svg" xmlns:xlink="http://www.w3.org/1999/xlink" x="0px" y="0px"
	 viewBox="0 0 112 48" style="enable-background:new 0 0 112 48;" xml:space="preserve">
<style type="text/css">
	.st0{fill:#FFFFFF;fill-opacity:0;}
	.st1{fill:#164D56;}
	.st2{fill:#184D57;}
	.st3{fill:#B6C2C6;}
	.st4{fill:#2D6973;}
	.st5{fill:#FFFFFF;}
	.st6{fill:#B5C1C5;}
</style>
<rect class="st0" width="112" height="48"/>
<g transform="translate(1.1 -7.9)">
	<g transform="translate(53.623 22.167)">
		<path class="st1" d="M10.8,10H2.3v8.4c0,0.1-0.1,0.3-0.3,0.3H0.3c-0.1,0-0.3-0.1-0.3-0.3V0.3C0,0.1,0.1,0,0.2,0c0,0,0,0,0,0H2
			c0.1,0,0.3,0.1,0.3,0.2c0,0,0,0,0,0V8h8.5V0.3C10.8,0.1,10.9,0,11,0c0,0,0,0,0,0h1.8c0.1,0,0.3,0.1,0.3,0.2c0,0,0,0,0,0v18.2
			c0,0.1-0.1,0.3-0.3,0.3h-1.8c-0.1,0-0.3-0.1-0.3-0.3L10.8,10z"/>
		<path class="st1" d="M17.2,2.5c-0.1,0-0.3-0.1-0.3-0.3v-2C17,0.1,17.1,0,17.2,0h1.9c0.1,0,0.3,0.1,0.3,0.2c0,0,0,0,0,0v2
			c0,0.1-0.1,0.3-0.2,0.3c0,0,0,0,0,0L17.2,2.5z M17.1,5.1c0-0.1,0.1-0.3,0.2-0.3c0,0,0,0,0,0h1.8c0.1,0,0.3,0.1,0.3,0.2
			c0,0,0,0,0,0v13.3c0,0.1-0.1,0.3-0.3,0.3h-1.8c-0.1,0-0.3-0.1-0.3-0.3V5.1z"/>
		<path class="st1" d="M30.1,17.9c-0.2,0.7-1,0.9-1.9,0.9s-1.6-0.2-1.9-0.9L22.2,5.2c-0.1-0.2,0.1-0.3,0.3-0.3h1.4
			c0.4,0,0.7,0.3,0.8,0.6L28,16l0.3,1.2l0.3-1.2l3.2-10.6c0.1-0.3,0.4-0.6,0.8-0.6H34c0.3,0,0.4,0.1,0.3,0.3L30.1,17.9z"/>
		<path class="st1" d="M38.7,15.9c0,0.5,0.4,0.9,0.9,0.9c0,0,0,0,0.1,0h5.7c0.1,0,0.2,0.1,0.2,0.2c0,0,0,0,0,0v1.6
			c0,0.1-0.1,0.2-0.2,0.2h-6.6c-1.2,0.1-2.3-0.9-2.3-2.1c0-0.1,0-0.1,0-0.2V7.1C36.3,6,37.2,5,38.3,4.9c0.1,0,0.2,0,0.4,0h5.3
			c1.2-0.1,2.2,0.8,2.3,2c0,0.1,0,0.1,0,0.2v2.5c0.2,1-0.4,2.1-1.3,2.5l-5.8,1.3c-0.3,0.1-0.5,0.4-0.5,0.7L38.7,15.9L38.7,15.9z
			 M43.7,10.3c0.6-0.1,0.5-0.9,0.5-1.1V7.5c0-0.4-0.3-0.7-0.7-0.7c0,0,0,0-0.1,0h-4c-0.4,0-0.7,0.2-0.8,0.6c0,0,0,0.1,0,0.1v4.1
			l0.9-0.4L43.7,10.3z"/>
	</g>
	<g transform="translate(9.9 14.9)">
		<path class="st2" d="M10.3,1.2L1.4,16.7l8.9,15.4h17.8L37,16.7L28.1,1.2H10.3z"/>
		<path class="st3" d="M28.8,0H9.6L0,16.6l9.6,16.6h19.2l9.6-16.6L28.8,0z M11,30.9L2.8,16.6L11,2.4h16.4l8.2,14.2l-8.2,14.2H11z"/>
		<path class="st4" d="M23,12.8L19.2,3l-3.8,9.8H5.6l7.6,6.2l-2.8,9.9l8.9-5.8l8.9,5.8L24.9,19l8-6.2H23z"/>
		<path class="st5" d="M13.6,24.3c-1.2-0.1-2-1.1-2-2.2c0,0,0,0,0-0.1v-9c-0.1-1.2,0.8-2.2,1.9-2.3c0,0,0,0,0.1,0H18
			c0.3,0,0.5,0.2,0.5,0.5v1c0,0.3-0.2,0.5-0.5,0.5h-3.8c-0.3,0-0.5,0.4-0.5,0.7v8c0,0.4,0.2,0.7,0.5,0.7H18c0.3,0,0.5,0.2,0.5,0.5v1
			c0,0.3-0.2,0.5-0.5,0.5L13.6,24.3L13.6,24.3z"/>
		<path class="st5" d="M24,12.8h-3.6c-0.3,0-0.5-0.2-0.6-0.5c0,0,0,0,0,0v-1c0-0.3,0.3-0.5,0.6-0.5c0,0,0,0,0,0h3.8
			c1.1,0,1.9,0.9,1.9,2c0,0,0,0.1,0,0.1V16c0,0.5-0.3,1-0.8,1.2c0.6,0.1,1.1,0.7,1.1,1.4v3.5c0.1,1.1-0.8,2.1-1.9,2.2h-4
			c-0.3,0-0.5-0.2-0.5-0.5c0,0,0,0,0,0v-0.9c0-0.3,0.2-0.5,0.5-0.5h3.8c0-0.1,0-0.1,0-0.2v-3.7H21c-0.3,0-0.5-0.2-0.5-0.5v-1
			c0-0.3,0.2-0.5,0.5-0.5h3c0,0,0-0.1,0-0.2L24,12.8z"/>
		<path class="st6" d="M17.9,15.9l-0.5-1.4l-0.5,1.4h-1.4l1.1,0.9l-0.4,1.4l1.3-0.8l1.3,0.8l-0.5-1.4l1.1-0.9L17.9,15.9z"/>
	</g>
</g>
</svg>
